<svg width="51" height="30" viewBox="0 0 51 30" fill="none" xmlns="http://www.w3.org/2000/svg">
<path d="M49 17C50.1046 17 51 16.1046 51 15C51 13.8954 50.1046 13 49 13L49 17ZM0.585785 13.5858C-0.195263 14.3668 -0.195263 15.6332 0.585785 16.4142L13.3137 29.1421C14.0948 29.9232 15.3611 29.9232 16.1421 29.1421C16.9232 28.3611 16.9232 27.0948 16.1421 26.3137L4.82843 15L16.1421 3.68629C16.9232 2.90524 16.9232 1.63891 16.1421 0.857862C15.3611 0.0768127 14.0948 0.0768126 13.3137 0.857861L0.585785 13.5858ZM49 13L2 13L2 17L49 17L49 13Z" fill="#C8C1C3"/>
</svg>
